<?xml version="1.0" standalone="no" ?>
<!DOCTYPE svg PUBLIC "-//W3C//DTD SVG 1.1//EN" "http://www.w3.org/Graphics/SVG/1.1/DTD/svg11.dtd">
<svg width="70px" height="59px" viewBox="0 0 70 59" xmlns="http://www.w3.org/2000/svg" xmlns:xlink="http://www.w3.org/1999/xlink" version="1.1" >
<path stroke="transparent" fill="#000000" transform="matrix(0.1 0 0 0.1 -353.3 -183.8)" d="M 3586.26,2264.55 L 3574.36,2271.43 L 3574.36,2048.57 L 3586.26,2055.45 L 3586.26,2264.55 Z " />
<path stroke="transparent" fill="#000000" transform="matrix(0.1 0 0 0.1 -353.3 -183.8)" d="M 3625.14,2245.54 L 3613.23,2245.54 L 3613.23,2074.46 L 3625.14,2074.46 L 3625.14,2245.54 Z " />
<path stroke="transparent" fill="#000000" transform="matrix(0.1 0 0 0.1 -353.3 -183.8)" d="M 3767.35,2369.1 L 3767.35,2382.85 L 3574.36,2271.43 L 3586.26,2264.55 L 3767.35,2369.1 Z " />
<path stroke="transparent" fill="#000000" transform="matrix(0.1 0 0 0.1 -353.3 -183.8)" d="M 3948.44,2264.55 L 3960.35,2271.43 L 3767.35,2382.85 L 3767.35,2369.1 L 3948.44,2264.55 Z " />
<path stroke="transparent" fill="#000000" transform="matrix(0.1 0 0 0.1 -353.3 -183.8)" d="M 3912.54,2240.39 L 3918.49,2250.7 L 3770.33,2336.24 L 3764.38,2325.93 L 3912.54,2240.39 Z " />
<path stroke="transparent" fill="#000000" transform="matrix(0.1 0 0 0.1 -353.3 -183.8)" d="M 3948.44,2055.45 L 3954.39,2052.01 L 3960.35,2055.45 L 3960.35,2271.43 L 3948.44,2264.55 L 3948.44,2055.45 Z " />
<path stroke="transparent" fill="#000000" transform="matrix(0.1 0 0 0.1 -353.3 -183.8)" d="M 3767.35,1950.9 L 3767.35,1937.15 L 3954.39,2045.14 L 3954.39,2052.01 L 3948.44,2055.45 L 3767.35,1950.9 Z " />
<path stroke="transparent" fill="#000000" transform="matrix(0.1 0 0 0.1 -353.3 -183.8)" d="M 3764.38,1994.07 L 3770.33,1983.76 L 3918.49,2069.3 L 3912.54,2079.61 L 3764.38,1994.07 Z " />
<path stroke="transparent" fill="#000000" transform="matrix(0.1 0 0 0.1 -353.3 -183.8)" d="M 3586.26,2055.45 L 3574.36,2048.57 L 3767.35,1937.15 L 3767.35,1950.9 L 3586.26,2055.45 Z " />
<text x="0" y="0" stroke="transparent" fill="#000000" transform="matrix(0.1 0 0 0.1 56.4935 15.2523)" style="font:normal normal normal 120px 'Arial'" >
H</text>
<path stroke="transparent" fill="#000000" transform="matrix(0.1 0 0 0.1 -353.3 -183.8)" d="M 4072.72,1976.82 L 4078.67,1987.13 L 4052.21,2002.41 L 4046.25,1992.1 L 4072.72,1976.82 L 4072.72,1976.82 Z " />
<path stroke="transparent" fill="#000000" transform="matrix(0.1 0 0 0.1 -353.3 -183.8)" d="M 3960.35,2055.45 L 3954.39,2052.01 L 3954.39,2045.14 L 3994.7,2021.87 L 4000.65,2032.18 L 3960.35,2055.45 L 3960.35,2055.45 Z " />
<path stroke="transparent" fill="#000000" transform="matrix(0.1 0 0 0.1 -353.3 -183.8)" d="M 4081.48,2100.73 L 4071.17,2106.68 L 4055.74,2079.96 L 4066.05,2074.01 L 4081.48,2100.73 Z " />
<path stroke="transparent" fill="#000000" transform="matrix(0.1 0 0 0.1 -353.3 -183.8)" d="M 4050.62,2047.29 L 4040.31,2053.24 L 4024.89,2026.52 L 4035.2,2020.57 L 4050.62,2047.29 Z " />
<path stroke="transparent" fill="#000000" transform="matrix(0.1 0 0 0.1 -353.3 -183.8)" d="M 4019.77,1993.85 L 4009.46,1999.8 L 3994.03,1973.08 L 4004.34,1967.13 L 4019.77,1993.85 Z " />
<path stroke="transparent" fill="#000000" transform="matrix(0.1 0 0 0.1 -353.3 -183.8)" d="M 3988.92,1940.41 L 3978.61,1946.36 L 3963.18,1919.64 L 3973.49,1913.69 L 3988.92,1940.41 Z " />
</svg>
