<?xml version="1.0" standalone="no" ?>
<!DOCTYPE svg PUBLIC "-//W3C//DTD SVG 1.1//EN" "http://www.w3.org/Graphics/SVG/1.1/DTD/svg11.dtd">
<svg width="82px" height="82px" viewBox="0 0 82 82" xmlns="http://www.w3.org/2000/svg" xmlns:xlink="http://www.w3.org/1999/xlink" version="1.1" >
<path stroke="transparent" fill="#cbe6ff" transform="matrix(0.1 0 0 0.1 -260.3 -165.8)" d="M 2657.17,2070 A 357.835,357.835 0 1 0 3372.83,2070A 357.835,357.835 0 1 0 2657.17,2070Z " />
<path stroke="transparent" fill="#000000" transform="matrix(0.1 0 0 0.1 -260.3 -165.8)" d="M 2764.6,2213.55 L 2752.69,2220.43 L 2752.69,1912.25 L 2764.6,1919.12 L 2764.6,2213.55 Z " />
<path stroke="transparent" fill="#000000" transform="matrix(0.1 0 0 0.1 -260.3 -165.8)" d="M 2818.83,2185.68 L 2806.93,2185.68 L 2806.93,1947 L 2818.83,1947 L 2818.83,2185.68 Z " />
<path stroke="transparent" fill="#000000" transform="matrix(0.1 0 0 0.1 -260.3 -165.8)" d="M 3019.58,2360.77 L 3019.58,2374.52 L 2752.69,2220.43 L 2764.6,2213.55 L 3019.58,2360.77 Z " />
<path stroke="transparent" fill="#000000" transform="matrix(0.1 0 0 0.1 -260.3 -165.8)" d="M 3274.56,2213.55 L 3286.47,2220.43 L 3019.58,2374.52 L 3019.58,2360.77 L 3274.56,2213.55 Z " />
<path stroke="transparent" fill="#000000" transform="matrix(0.1 0 0 0.1 -260.3 -165.8)" d="M 3223.31,2180.52 L 3229.26,2190.83 L 3022.56,2310.17 L 3016.6,2299.86 L 3223.31,2180.52 Z " />
<path stroke="transparent" fill="#000000" transform="matrix(0.1 0 0 0.1 -260.3 -165.8)" d="M 3274.56,1919.12 L 3286.47,1912.25 L 3286.47,2220.43 L 3274.56,2213.55 L 3274.56,1919.12 Z " />
<path stroke="transparent" fill="#000000" transform="matrix(0.1 0 0 0.1 -260.3 -165.8)" d="M 3019.58,1771.91 L 3019.58,1758.16 L 3286.47,1912.25 L 3274.56,1919.12 L 3019.58,1771.91 Z " />
<path stroke="transparent" fill="#000000" transform="matrix(0.1 0 0 0.1 -260.3 -165.8)" d="M 3016.6,1832.82 L 3022.56,1822.51 L 3229.26,1941.85 L 3223.31,1952.16 L 3016.6,1832.82 Z " />
<path stroke="transparent" fill="#000000" transform="matrix(0.1 0 0 0.1 -260.3 -165.8)" d="M 2764.6,1919.12 L 2752.69,1912.25 L 3019.58,1758.16 L 3019.58,1771.91 L 2764.6,1919.12 Z " />
<path stroke="transparent" fill="#012a58" transform="matrix(0.1 0 0 0.1 -260.3 -165.8)" d="M 2906.74,2191.31 C 2906.74,2191.31 2909.73,1917.35 2909.73,1917.35 C 2909.73,1917.35 2945.78,1917.75 2945.78,1917.75 C 2945.78,1917.75 2942.79,2191.7 2942.79,2191.7 C 2942.79,2191.7 2906.74,2191.31 2906.74,2191.31 " />
<path stroke="#012a58" stroke-width="1" fill="transparent" transform="matrix(0.1 0 0 0.1 -260.3 -165.8)" d="M 2906.74,2191.31 C 2906.74,2191.31 2909.73,1917.35 2909.73,1917.35 C 2909.73,1917.35 2945.78,1917.75 2945.78,1917.75 C 2945.78,1917.75 2942.79,2191.7 2942.79,2191.7 C 2942.79,2191.7 2906.74,2191.31 2906.74,2191.31 " />
<path stroke="transparent" fill="#012a58" transform="matrix(0.1 0 0 0.1 -260.3 -165.8)" d="M 2908.07,2156.91 C 2908.07,2156.91 3131.63,2155.8 3131.63,2155.8 C 3131.63,2155.8 3131.74,2191.85 3131.74,2191.85 C 3131.74,2191.85 2908.18,2192.96 2908.18,2192.96 C 2908.18,2192.96 2908.07,2156.91 2908.07,2156.91 " />
<path stroke="#012a58" stroke-width="1" fill="transparent" transform="matrix(0.1 0 0 0.1 -260.3 -165.8)" d="M 2908.07,2156.91 C 2908.07,2156.91 3131.63,2155.8 3131.63,2155.8 C 3131.63,2155.8 3131.74,2191.85 3131.74,2191.85 C 3131.74,2191.85 2908.18,2192.96 2908.18,2192.96 C 2908.18,2192.96 2908.07,2156.91 2908.07,2156.91 " />
</svg>
