<?xml version="1.0" standalone="no" ?>
<!DOCTYPE svg PUBLIC "-//W3C//DTD SVG 1.1//EN" "http://www.w3.org/Graphics/SVG/1.1/DTD/svg11.dtd">
<svg width="70px" height="69px" viewBox="0 0 70 69" xmlns="http://www.w3.org/2000/svg" xmlns:xlink="http://www.w3.org/1999/xlink" version="1.1" >
<path stroke="transparent" fill="#000000" transform="matrix(0.1 0 0 0.1 -348.3 -265.4)" d="M 4078.9,3007.47 L 4069.55,3007.4 L 4053.49,3000.75 L 3831.56,2783.09 L 3830.55,2773 L 3831.85,2765.17 L 4078.9,3007.47 Z " />
<path stroke="transparent" fill="#000000" transform="matrix(0.1 0 0 0.1 -348.3 -265.4)" d="M 3831.85,2765.17 L 3830.55,2773 L 3811.69,2789.23 L 3617.12,2882.33 L 3602.75,2882 L 3593.14,2879.39 L 3831.85,2765.17 Z " />
<path stroke="transparent" fill="#000000" transform="matrix(0.1 0 0 0.1 -348.3 -265.4)" d="M 4053.46,3013.75 L 4069.55,3007.4 L 4078.9,3007.47 L 3838.55,3236.43 L 3837.35,3228.6 L 3838.43,3218.6 L 4053.46,3013.75 Z " />
<path stroke="transparent" fill="#000000" transform="matrix(0.1 0 0 0.1 -348.3 -265.4)" d="M 4053.49,3000.75 L 4069.55,3007.4 L 4053.46,3013.75 L 3833.95,3011.71 L 3832.55,3005.2 L 3834.21,2998.71 L 4053.49,3000.75 Z " />
<path stroke="transparent" fill="#000000" transform="matrix(0.1 0 0 0.1 -348.3 -265.4)" d="M 3834.21,2998.71 L 3832.55,3005.2 L 3817.98,3004.77 L 3740.72,2963.34 L 3748.06,2952.53 L 3834.21,2998.71 L 3834.21,2998.71 Z " />
<path stroke="transparent" fill="#000000" transform="matrix(0.1 0 0 0.1 -348.3 -265.4)" d="M 3622.9,2900.18 L 3602.75,2882 L 3617.12,2882.33 L 3690.46,2921.65 L 3683.12,2932.46 L 3622.9,2900.18 L 3622.9,2900.18 Z " />
<path stroke="transparent" fill="#000000" transform="matrix(0.1 0 0 0.1 -348.3 -265.4)" d="M 3817.98,3004.77 L 3832.55,3005.2 L 3833.95,3011.71 L 3754.59,3048.35 L 3747.21,3037.44 L 3817.98,3004.77 L 3817.98,3004.77 Z " />
<path stroke="transparent" fill="#000000" transform="matrix(0.1 0 0 0.1 -348.3 -265.4)" d="M 3615.47,3112.58 L 3600.35,3112.4 L 3618.85,3096.7 L 3687.41,3065.05 L 3694.79,3075.96 L 3615.47,3112.58 L 3615.47,3112.58 Z " />
<path stroke="transparent" fill="#000000" transform="matrix(0.1 0 0 0.1 -348.3 -265.4)" d="M 3818.27,3212 L 3837.35,3228.6 L 3838.55,3236.43 L 3590.77,3114.94 L 3600.35,3112.4 L 3615.47,3112.58 L 3818.27,3212 Z " />
<path stroke="transparent" fill="#000000" transform="matrix(0.1 0 0 0.1 -348.3 -265.4)" d="M 3811.69,2789.23 L 3830.55,2773 L 3831.56,2783.09 L 3703.17,2972.38 L 3695.33,2960.79 L 3811.69,2789.23 L 3811.69,2789.23 Z " />
<path stroke="transparent" fill="#000000" transform="matrix(0.1 0 0 0.1 -348.3 -265.4)" d="M 3618.85,3096.7 L 3600.35,3112.4 L 3590.77,3114.94 L 3656.04,3018.71 L 3663.89,3030.3 L 3618.85,3096.7 L 3618.85,3096.7 Z " />
<path stroke="transparent" fill="#000000" transform="matrix(0.1 0 0 0.1 -348.3 -265.4)" d="M 3838.43,3218.6 L 3837.35,3228.6 L 3818.27,3212 L 3593.14,2879.39 L 3602.75,2882 L 3622.9,2900.18 L 3838.43,3218.6 Z " />
<path stroke="transparent" fill="#002958" transform="matrix(0.1 0 0 0.1 -348.3 -265.4)" d="M 3531.95,2882 A 70.7999,70.7999 0 1 0 3673.55,2882A 70.7999,70.7999 0 1 0 3531.95,2882Z " />
<path stroke="transparent" fill="#002958" transform="matrix(0.1 0 0 0.1 -348.3 -265.4)" d="M 3531.55,3119 A 71.0001,71.0001 0 1 0 3673.55,3119A 71.0001,71.0001 0 1 0 3531.55,3119Z " />
<path stroke="transparent" fill="#294ab9" transform="matrix(0.1 0 0 0.1 -348.3 -265.4)" d="M 3759.75,3002.8 A 70.7999,70.7999 0 1 0 3901.35,3002.8A 70.7999,70.7999 0 1 0 3759.75,3002.8Z " />
<path stroke="transparent" fill="#294ab9" transform="matrix(0.1 0 0 0.1 -348.3 -265.4)" d="M 3759.75,2774.8 A 70.7999,70.7999 0 1 0 3901.35,2774.8A 70.7999,70.7999 0 1 0 3759.75,2774.8Z " />
<path stroke="transparent" fill="#294ab9" transform="matrix(0.1 0 0 0.1 -348.3 -265.4)" d="M 3759.75,3225.8 A 70.7999,70.7999 0 1 0 3901.35,3225.8A 70.7999,70.7999 0 1 0 3759.75,3225.8Z " />
<path stroke="transparent" fill="#cce1f1" transform="matrix(0.1 0 0 0.1 -348.3 -265.4)" d="M 3991.55,3002.8 A 71.0001,71.0001 0 1 0 4133.55,3002.8A 71.0001,71.0001 0 1 0 3991.55,3002.8Z " />
</svg>
